REM DIRINDEX 1\2,1\3,1\4,1\5
REM DIRNAME cjc005,folder01,folder02,folder03,folder04
TITLE ""
FILE "P1Q_t_0953-0962.mp3" MP3
  TRACK 01 AUDIO
    TITLE "3:cjc005_3764"
    INDEX 01 00:00:00
  TRACK 02 AUDIO
    TITLE "0:"
    INDEX 01 00:01:03
  TRACK 03 AUDIO
    TITLE "4:cjc005_3765"
    INDEX 01 00:01:22
  TRACK 04 AUDIO
    TITLE "0:"
    INDEX 01 00:02:53
  TRACK 05 AUDIO
    TITLE "5:cjc005_3766"
    INDEX 01 00:03:06
  TRACK 06 AUDIO
    TITLE "0:"
    INDEX 01 00:07:17
  TRACK 07 AUDIO
    TITLE "3:cjc005_3767"
    INDEX 01 00:07:66
  TRACK 08 AUDIO
    TITLE "0:"
    INDEX 01 00:09:24
  TRACK 09 AUDIO
    TITLE "4:cjc005_3768"
    INDEX 01 00:09:55
  TRACK 10 AUDIO
    TITLE "0:"
    INDEX 01 00:11:03
  TRACK 11 AUDIO
    TITLE "5:cjc005_3769"
    INDEX 01 00:11:31
  TRACK 12 AUDIO
    TITLE "0:"
    INDEX 01 00:15:42
  TRACK 13 AUDIO
    TITLE "3:cjc005_3770"
    INDEX 01 00:16:20
  TRACK 14 AUDIO
    TITLE "0:"
    INDEX 01 00:17:35
  TRACK 15 AUDIO
    TITLE "4:cjc005_3771"
    INDEX 01 00:17:70
  TRACK 16 AUDIO
    TITLE "0:"
    INDEX 01 00:19:15
  TRACK 17 AUDIO
    TITLE "5:cjc005_3772"
    INDEX 01 00:19:44
  TRACK 18 AUDIO
    TITLE "0:"
    INDEX 01 00:24:35
  TRACK 19 AUDIO
    TITLE "3:cjc005_3773"
    INDEX 01 00:25:09
  TRACK 20 AUDIO
    TITLE "0:"
    INDEX 01 00:26:20
  TRACK 21 AUDIO
    TITLE "4:cjc005_3774"
    INDEX 01 00:26:46
  TRACK 22 AUDIO
    TITLE "0:"
    INDEX 01 00:28:02
  TRACK 23 AUDIO
    TITLE "5:cjc005_3775"
    INDEX 01 00:28:27
  TRACK 24 AUDIO
    TITLE "0:"
    INDEX 01 00:32:72
  TRACK 25 AUDIO
    TITLE "3:cjc005_3776"
    INDEX 01 00:33:46
  TRACK 26 AUDIO
    TITLE "0:"
    INDEX 01 00:34:63
  TRACK 27 AUDIO
    TITLE "4:cjc005_3777"
    INDEX 01 00:35:21
  TRACK 28 AUDIO
    TITLE "0:"
    INDEX 01 00:36:56
  TRACK 29 AUDIO
    TITLE "5:cjc005_3778"
    INDEX 01 00:37:05
  TRACK 30 AUDIO
    TITLE "0:"
    INDEX 01 00:40:15
  TRACK 31 AUDIO
    TITLE "3:cjc005_3779"
    INDEX 01 00:40:66
  TRACK 32 AUDIO
    TITLE "0:"
    INDEX 01 00:42:08
  TRACK 33 AUDIO
    TITLE "4:cjc005_3780"
    INDEX 01 00:42:43
  TRACK 34 AUDIO
    TITLE "0:"
    INDEX 01 00:43:62
  TRACK 35 AUDIO
    TITLE "5:cjc005_3781"
    INDEX 01 00:44:09
  TRACK 36 AUDIO
    TITLE "0:"
    INDEX 01 00:47:56
  TRACK 37 AUDIO
    TITLE "3:cjc005_3782"
    INDEX 01 00:48:32
  TRACK 38 AUDIO
    TITLE "0:"
    INDEX 01 00:49:57
  TRACK 39 AUDIO
    TITLE "4:cjc005_3783"
    INDEX 01 00:50:03
  TRACK 40 AUDIO
    TITLE "0:"
    INDEX 01 00:51:60
  TRACK 41 AUDIO
    TITLE "5:cjc005_3784"
    INDEX 01 00:52:06
  TRACK 42 AUDIO
    TITLE "0:"
    INDEX 01 00:56:20
  TRACK 43 AUDIO
    TITLE "3:cjc005_3785"
    INDEX 01 00:56:71
  TRACK 44 AUDIO
    TITLE "0:"
    INDEX 01 00:58:15
  TRACK 45 AUDIO
    TITLE "4:cjc005_3786"
    INDEX 01 00:58:40
  TRACK 46 AUDIO
    TITLE "0:"
    INDEX 01 00:59:53
  TRACK 47 AUDIO
    TITLE "5:cjc005_3787"
    INDEX 01 01:00:00
  TRACK 48 AUDIO
    TITLE "0:"
    INDEX 01 01:04:17
  TRACK 49 AUDIO
    TITLE "3:cjc005_3788"
    INDEX 01 01:04:70
  TRACK 50 AUDIO
    TITLE "0:"
    INDEX 01 01:06:26
  TRACK 51 AUDIO
    TITLE "4:cjc005_3789"
    INDEX 01 01:06:53
  TRACK 52 AUDIO
    TITLE "0:"
    INDEX 01 01:08:44
  TRACK 53 AUDIO
    TITLE "5:cjc005_3790"
    INDEX 01 01:08:68
  TRACK 54 AUDIO
    TITLE "0:"
    INDEX 01 01:12:11
  TRACK 55 AUDIO
    TITLE "3:cjc005_3791"
    INDEX 01 01:12:62
  TRACK 56 AUDIO
    TITLE "0:"
    INDEX 01 01:14:14
  TRACK 57 AUDIO
    TITLE "4:cjc005_3792"
    INDEX 01 01:14:39
  TRACK 58 AUDIO
    TITLE "0:"
    INDEX 01 01:15:68
  TRACK 59 AUDIO
    TITLE "5:cjc005_3793"
    INDEX 01 01:16:12
  TRACK 60 AUDIO
    TITLE "0:"
    INDEX 01 01:20:20
